<svg width="4" height="4" viewBox="0 0 4 4" fill="none" xmlns="http://www.w3.org/2000/svg">
<path d="M1 1.9C0.944772 1.9 0.9 1.94477 0.9 2C0.9 2.05523 0.944772 2.1 1 2.1L1 1.9ZM3.07071 2.07071C3.10976 2.03166 3.10976 1.96834 3.07071 1.92929L2.43431 1.29289C2.39526 1.25384 2.33195 1.25384 2.29289 1.29289C2.25384 1.33195 2.25384 1.39526 2.29289 1.43431L2.85858 2L2.29289 2.56569C2.25384 2.60474 2.25384 2.66805 2.29289 2.70711C2.33195 2.74616 2.39526 2.74616 2.43431 2.70711L3.07071 2.07071ZM1 2.1L3 2.1L3 1.9L1 1.9L1 2.1Z" fill="black"/>
</svg>
