<svg width="35" height="22" viewBox="0 0 35 22" fill="none" xmlns="http://www.w3.org/2000/svg">
<path d="M14.0972 9.85766C16.0295 8.9316 17.0382 7.53032 17.0382 5.34921C17.0382 1.04791 13.842 0 10.1536 0H0V21.5918H10.4392C14.3524 21.5918 18.0286 19.7092 18.0286 15.3226C18.0286 12.6115 16.7465 10.607 14.0972 9.85766ZM4.73351 3.68596H9.17535C10.8828 3.68596 12.4201 4.16727 12.4201 6.15342C12.4201 7.98726 11.2231 8.72445 9.53385 8.72445H4.73351V3.68596ZM9.79514 17.9241H4.73351V11.9778H9.89236C11.9766 11.9778 13.2951 12.8491 13.2951 15.0606C13.2951 17.2418 11.7214 17.9241 9.79514 17.9241ZM31.579 3.25948H22.8472V1.1332H31.579V3.25948ZM35 14.0006C35 9.37635 32.3021 5.5198 27.4106 5.5198C22.6589 5.5198 19.4323 9.10219 19.4323 13.7934C19.4323 18.6613 22.4887 22 27.4106 22C31.1354 22 33.5477 20.3185 34.7083 16.7422H30.9288C30.5217 18.0764 28.8446 18.7832 27.5443 18.7832C25.0347 18.7832 23.7161 17.3088 23.7161 14.8048H34.9635C34.9818 14.5489 35 14.2747 35 14.0006ZM23.7222 12.0997C23.862 10.0465 25.2231 8.76101 27.2769 8.76101C29.428 8.76101 30.5095 10.0282 30.6918 12.0997H23.7222Z" fill="#FEE54A"/>
</svg>
