<svg width="27" height="22" viewBox="0 0 27 22" fill="none" xmlns="http://www.w3.org/2000/svg">
<path d="M13.5 16.5C11.34 16.5 9.18 14.575 8.1 13.75C2.7 9.9 1.08 8.525 0 7.7V19.25C0 20.7685 1.20909 22 2.7 22H24.3C25.7909 22 27 20.7685 27 19.25V7.7C25.92 8.525 24.3 9.9 18.9 13.75C17.82 14.575 15.66 16.5 13.5 16.5ZM24.3 0H2.7C1.20909 0 0 1.23149 0 2.75V4.125C2.16 5.775 1.89 5.775 9.72 11.55C10.53 12.1 12.15 13.75 13.5 13.75C14.85 13.75 16.47 12.1 17.28 11.825C25.11 6.05 24.84 6.05 27 4.4V2.75C27 1.23149 25.7909 0 24.3 0Z" fill="#FEE54A"/>
</svg>
