<svg width="31" height="22" viewBox="0 0 31 22" fill="none" xmlns="http://www.w3.org/2000/svg">
<path d="M30.3522 3.44226C29.9957 2.08731 28.9452 1.02019 27.6115 0.658052C25.194 0 15.5 0 15.5 0C15.5 0 5.80608 0 3.3885 0.658052C2.05475 1.02025 1.0043 2.08731 0.647775 3.44226C0 5.89818 0 11.0222 0 11.0222C0 11.0222 0 16.1463 0.647775 18.6022C1.0043 19.9572 2.05475 20.9798 3.3885 21.3419C5.80608 22 15.5 22 15.5 22C15.5 22 25.1939 22 27.6115 21.3419C28.9452 20.9798 29.9957 19.9572 30.3522 18.6022C31 16.1463 31 11.0222 31 11.0222C31 11.0222 31 5.89818 30.3522 3.44226ZM12.3295 15.6745V6.36997L20.4318 11.0223L12.3295 15.6745Z" fill="#FEE54A"/>
</svg>
